<?xml version="1.0" encoding="iso-8859-1"?>
<!-- Uploaded to: SVG Repo, www.svgrepo.com, Generator: SVG Repo Mixer Tools -->
<!DOCTYPE svg PUBLIC "-//W3C//DTD SVG 1.1//EN" "http://www.w3.org/Graphics/SVG/1.1/DTD/svg11.dtd">
<svg fill="#000000" height="800px" width="800px" version="1.1" id="Capa_1" xmlns="http://www.w3.org/2000/svg" xmlns:xlink="http://www.w3.org/1999/xlink" 
	 viewBox="0 0 485.768 485.768" xml:space="preserve">
<g>
	<path d="M107.524,160.052c22.643,0,44.282,9.705,59.371,26.625c5.147,5.771,13.996,6.277,19.767,1.131
		c5.771-5.146,6.277-13.996,1.132-19.767c-20.396-22.872-49.653-35.989-80.27-35.989C48.235,132.052,0,180.287,0,239.576
		c0,54.545,40.826,99.731,93.524,106.614v46.354H63.168c-7.732,0-14,6.268-14,14c0,7.732,6.268,14,14,14h30.356v28.447
		c0,7.732,6.268,14,14,14s14-6.268,14-14v-28.447h30.355c7.732,0,14-6.268,14-14c0-7.732-6.268-14-14-14h-30.355V346.18
		c25.404-3.347,49.01-15.714,66.27-35.069c5.146-5.771,4.64-14.621-1.132-19.767c-5.77-5.147-14.62-4.639-19.767,1.131
		c-15.089,16.921-36.729,26.626-59.371,26.626c-43.85,0-79.524-35.675-79.524-79.525C28,195.726,63.675,160.052,107.524,160.052z"/>
	<path d="M392.077,132.45V67.444l20.837,20.837c2.733,2.734,6.316,4.101,9.9,4.101c3.582-0.001,7.166-1.367,9.899-4.101
		c5.468-5.467,5.468-14.331,0-19.799l-39.386-39.387c-4.073-4.073-9.488-6.317-15.248-6.317c0,0-0.001,0-0.002,0
		c-5.761,0-11.177,2.244-15.247,6.316l-39.389,39.388c-5.468,5.467-5.468,14.331,0,19.799c5.467,5.468,14.332,5.468,19.799,0
		l20.837-20.836v65.013c-26.236,3.431-50.43,16.422-67.872,36.818c-5.025,5.876-4.336,14.713,1.54,19.739
		c5.876,5.025,14.714,4.336,19.739-1.54c15.182-17.752,37.267-27.933,60.593-27.933c43.942,0,79.691,35.749,79.691,79.692
		c0,21.287-8.289,41.299-23.341,56.351c-15.053,15.052-35.064,23.341-56.352,23.341c-23.325,0.001-45.41-10.181-60.591-27.934
		c-5.026-5.876-13.864-6.567-19.739-1.542c-5.876,5.025-6.566,13.862-1.542,19.739c20.509,23.983,50.351,37.737,81.873,37.736
		c0.001,0,0.001,0,0.003,0c28.763,0,55.807-11.202,76.146-31.542c20.34-20.34,31.542-47.384,31.542-76.15
		C485.768,184.596,444.868,139.334,392.077,132.45z"/>
	<path d="M209.384,223.62h70.496c7.732,0,14-6.268,14-14c0-7.732-6.268-14-14-14h-70.496c-7.732,0-14,6.268-14,14
		C195.384,217.352,201.651,223.62,209.384,223.62z"/>
	<path d="M279.88,251.117h-70.496c-7.732,0-14,6.268-14,14c0,7.732,6.268,14,14,14h70.496c7.732,0,14-6.268,14-14
		C293.88,257.385,287.612,251.117,279.88,251.117z"/>
</g>
</svg>