<?xml version="1.0" encoding="iso-8859-1"?>
<!-- Uploaded to: SVG Repo, www.svgrepo.com, Generator: SVG Repo Mixer Tools -->
<!DOCTYPE svg PUBLIC "-//W3C//DTD SVG 1.1//EN" "http://www.w3.org/Graphics/SVG/1.1/DTD/svg11.dtd">
<svg fill="#ffffff" height="800px" width="800px" version="1.1" id="Capa_1" xmlns="http://www.w3.org/2000/svg" xmlns:xlink="http://www.w3.org/1999/xlink" 
	 viewBox="0 0 411.438 411.438" xml:space="preserve">
<g>
	<path d="M248.655,22.146h-3.66V10c0-5.522-4.477-10-10-10c-5.523,0-10,4.478-10,10v12.146h-40V10c0-5.522-4.477-10-10-10
		c-5.523,0-10,4.478-10,10v12.146h-40V10c0-5.522-4.477-10-10-10c-5.523,0-10,4.478-10,10v12.146h-40V10c0-5.522-4.477-10-10-10
		c-5.523,0-10,4.478-10,10v12.146h-3.66c-22.057,0-40,17.944-40,40v309.291c0,22.056,17.943,40,40,40h207.32
		c22.057,0,40-17.944,40-40V62.146C288.655,40.091,270.711,22.146,248.655,22.146z M268.655,371.438c0,11.028-8.971,20-20,20H41.334
		c-11.027,0-20-8.972-20-20V62.146c0-11.028,8.973-20,20-20h3.66v25.689c0,5.522,4.477,10,10,10c5.523,0,10-4.478,10-10V42.146h40
		v25.689c0,5.522,4.477,10,10,10c5.523,0,10-4.478,10-10V42.146h40v25.689c0,5.522,4.477,10,10,10c5.523,0,10-4.478,10-10V42.146h40
		v25.689c0,5.522,4.477,10,10,10c5.523,0,10-4.478,10-10V42.146h3.66c11.029,0,20,8.972,20,20V371.438z"/>
	<path d="M234.491,156.469H55.498c-5.523,0-10,4.478-10,10c0,5.522,4.477,10,10,10h178.992c5.523,0,10-4.478,10-10
		C244.491,160.946,240.014,156.469,234.491,156.469z"/>
	<path d="M234.491,216.469H55.498c-5.523,0-10,4.478-10,10c0,5.522,4.477,10,10,10h178.992c5.523,0,10-4.478,10-10
		C244.491,220.946,240.014,216.469,234.491,216.469z"/>
	<path d="M234.491,276.469H55.498c-5.523,0-10,4.477-10,10c0,5.522,4.477,10,10,10h178.992c5.523,0,10-4.478,10-10
		C244.491,280.946,240.014,276.469,234.491,276.469z"/>
	<path d="M406,42.543c-0.354-3.571-2.596-6.679-5.873-8.143c-12.336-5.509-22.994-8.075-33.541-8.075
		c-10.547,0-21.207,2.566-33.547,8.074c-3.277,1.464-5.52,4.572-5.875,8.145c-5.463,55.046-5.463,108.563,0,163.607
		c0.348,3.486,2.49,6.531,5.641,8.036l6.793,139.384c0.035,0.686,0.139,1.366,0.311,2.031l11.496,44.172
		c1.148,4.406,5.125,7.481,9.678,7.481h11c4.555,0,8.533-3.076,9.678-7.482l11.49-44.172c0.174-0.664,0.277-1.345,0.311-2.03
		l6.799-139.384c3.148-1.505,5.293-4.548,5.639-8.033C411.471,151.151,411.471,97.634,406,42.543z M346.498,50.465
		c3.551-1.35,6.887-2.348,10.084-3.03v74.224c0,5.522,4.478,10,10,10c5.523,0,10-4.478,10-10V47.434
		c3.199,0.683,6.535,1.682,10.086,3.03c4.553,49.403,4.574,97.604,0.072,146.919h-40.316
		C341.93,148.029,341.952,99.833,346.498,50.465z M373.635,351.565l-7.053,27.116l-7.057-27.116l-6.541-134.183h27.195
		L373.635,351.565z"/>
</g>
</svg>