<?xml version="1.0" encoding="utf-8"?>
<!-- Generator: Adobe Illustrator 23.0.3, SVG Export Plug-In . SVG Version: 6.00 Build 0)  -->
<svg version="1.1" id="Layer_1" xmlns="http://www.w3.org/2000/svg" xmlns:xlink="http://www.w3.org/1999/xlink" x="0px" y="0px"
	 viewBox="0 0 1024 1024" style="enable-background:new 0 0 1024 1024;" xml:space="preserve">
<style type="text/css">
	.st0{fill:#ffffff;}
	.st1{fill:none;}
</style>
<g>
	<path class="st0" d="M276.2,493.6l-5.6,6.7c-4.2-3.5-8.6-5.1-13.4-4.7c-1.7,0.2-3.2,0.5-4.5,1.2c-1.2,0.6-2.3,1.3-3.1,2.3
		c-1.2,1.5-1.7,3.2-1.6,5.3c0.2,0.8,0.5,1.6,1.1,2.3c0.6,0.7,1.2,1.3,1.9,1.8c0.6,0.5,1.6,0.9,2.8,1.4c1.2,0.5,2.3,0.9,3.1,1.1
		c0.8,0.2,2,0.6,3.5,1c2.5,0.7,4.5,1.3,5.8,1.7c1.3,0.4,3,1.2,4.9,2.2c2,1,3.4,2.1,4.4,3.2c0.9,1.1,1.7,2.7,2.3,4.5
		c0.6,1.9,0.8,4.1,0.6,6.6v0.1c-0.4,2.7-1.4,5.2-3.1,7.4c-2.1,2.5-4.9,4.4-8.4,5.5c-3.4,1-7,1.3-10.9,0.8
		c-6.7-0.8-13.1-3.7-19.2-8.5l5.4-6.8c4.8,3.8,9.7,6,14.8,6.6c2.7,0.4,5.1,0.2,7.2-0.5c1.9-0.6,3.3-1.5,4.2-2.6
		c0.7-0.8,1.1-1.8,1.2-2.9c0.1-1-0.1-2-0.6-2.8c-0.4-0.9-1-1.6-1.6-2.1c-0.6-0.5-1.5-1.1-2.8-1.6c-1.3-0.5-2.3-1-3.1-1.2
		c-0.8-0.3-2.1-0.7-3.7-1.1c-1.6-0.5-2.9-0.8-3.7-1.1c-0.8-0.3-2-0.7-3.5-1.2c-1.5-0.5-2.6-1-3.4-1.5c-0.8-0.5-1.7-1.1-2.8-1.9
		c-1.1-0.8-1.9-1.6-2.5-2.4c-0.6-0.9-1.2-1.9-1.7-3.1c-0.5-1.2-0.9-2.5-1.1-3.9v-0.3c-0.3-4.4,0.9-8.3,3.6-11.6
		c1.6-1.9,3.6-3.4,6.1-4.6c2.4-1.1,4.9-1.7,7.6-1.9c2.1-0.2,4.3,0,6.4,0.4c2.2,0.4,4.4,1.2,6.7,2.2
		C272,490.5,274.2,491.9,276.2,493.6"/>
	<path class="st0" d="M290.1,530.1c-2.5-4.4-3.8-9.1-3.8-14.3c0-5.2,1.3-9.9,3.8-14.3c2.5-4.4,6-7.8,10.4-10.4c4.4-2.6,9.2-3.8,14.4-3.8
		c2.9,0,5.7,0.4,8.5,1.3c2.7,0.9,5.2,2.1,7.5,3.6c2.3,1.6,4.3,3.4,6.1,5.6l-6.3,6.3c-1.8-2.5-4.1-4.4-6.9-5.9
		c-2.8-1.4-5.7-2.1-8.9-2.1c-5.4,0-10.1,1.9-13.9,5.8c-3.9,3.9-5.8,8.5-5.8,13.9c0,5.4,1.9,10.1,5.8,13.9c3.9,3.9,8.5,5.8,13.9,5.8
		c3.2,0,6.1-0.7,8.9-2.1c2.8-1.4,5.1-3.4,6.9-5.9l6.3,6.3c-2.6,3.3-5.9,5.8-9.7,7.7c-3.9,1.9-8,2.8-12.3,2.8c-5.2,0-10-1.3-14.4-3.8
		C296.1,538,292.6,534.5,290.1,530.1"/>
	<path class="st0" d="M379.3,543L365,520.1h-11.7V543h-8.6v-31.5h27.3h0.1c2,0,3.6-0.7,5-2.1c1.4-1.4,2.1-3.1,2.1-5.1c0-2-0.7-3.7-2.1-5
		c-1.4-1.4-3.1-2.1-5-2.1h-27.3v-8.6h27.3c4.2,0,7.8,1.5,10.8,4.4c3,2.9,4.7,6.4,4.9,10.6v0.1c0.2,3.9-1,7.4-3.4,10.4
		c-2.4,3.1-5.5,5-9.4,5.8l14.4,23.1H379.3z"/>
	<path class="st0" d="M443.5,543l-5.6-13h-25.7l-5.5,13h-9.5l12.9-30.3h9.5l-3.6,8.4h18.2c-8.7-20.4-13.3-31.2-13.8-32.5h9.5l23.1,54.4H443.5z"
		/>
	<path class="st0" d="M495.6,497.2h-44.3v-8.6h44.3V497.2z M477.8,543h-8.6v-37.1h8.6V543z"/>
	<path class="st0" d="M507.2,530.1c-2.5-4.4-3.8-9.1-3.8-14.3c0-5.2,1.3-9.9,3.8-14.3c2.5-4.4,6-7.8,10.4-10.4c4.4-2.6,9.2-3.8,14.4-3.8
		c2.9,0,5.7,0.4,8.5,1.3c2.7,0.9,5.3,2.1,7.5,3.6s4.3,3.4,6.1,5.6l-6.3,6.3c-1.8-2.5-4.1-4.4-6.9-5.9c-2.8-1.4-5.7-2.1-8.9-2.1
		c-5.4,0-10.1,1.9-13.9,5.8c-3.9,3.9-5.8,8.5-5.8,13.9c0,5.4,1.9,10.1,5.8,13.9c3.9,3.9,8.5,5.8,13.9,5.8c3.2,0,6.1-0.7,8.9-2.1
		c2.8-1.4,5.1-3.4,6.9-5.9l6.3,6.3c-2.6,3.3-5.9,5.8-9.7,7.7c-3.9,1.9-8,2.8-12.3,2.8c-5.2,0-10-1.3-14.4-3.8
		C513.2,538,509.7,534.5,507.2,530.1"/>
	<path class="st0" d="M597.6,520.1h-27.2V543h-8.6v-31.5h14.1v-0.1c10.9,0.1,18.1,0.1,21.7,0.1v-22.9h8.5V543h-8.5V520.1z M561.8,488.6h8.6v14.3
		h-8.6V488.6z"/>
	<path class="st0" d="M679.4,541.7c-1.1-1-3.1-2.7-5.9-5.3c-0.7,0.7-1.3,1.3-2,1.9c-2.9,2.5-6,4.1-9.2,4.9c-3.2,0.8-6.3,0.8-9.2,0.1
		c-2.6-0.7-5-1.9-7-3.6c-2.1-1.8-3.5-3.9-4.4-6.3c-1.7-4.9-0.8-9.8,2.8-14.6c1.2-1.7,2.9-3.3,5.1-4.7c-1.5-1.9-2.5-3.9-3.3-6
		c-1-2.6-1.4-5.2-1.2-7.8c0.3-3,1.2-5.5,2.7-7.6c1.5-2.1,3.5-3.6,5.9-4.7c2.1-0.9,4.2-1.3,6.5-1.2c2.3,0.1,4.4,0.5,6.5,1.5
		c2.4,1.1,4.3,2.7,5.8,4.9c1.5,2.2,2.4,4.7,2.6,7.7c0.1,1.9-0.2,3.8-0.8,5.6c-0.6,1.8-1.6,3.4-3,4.8c-1.5,1.6-3.7,3.2-6.6,4.8
		c1.8,1.6,4.3,3.9,7.7,6.9c1.6-2.7,2.9-5.4,3.9-8.1l8.7,3c-1.4,3.9-3.3,7.7-5.6,11.3c2.2,2,4.3,3.9,6.3,5.7L679.4,541.7z
		 M666.6,530.3c-4.9-4.3-8.5-7.4-10.6-9.5c-2,1.2-3.4,2.5-4.2,3.7c-1.7,2.1-2.1,4.1-1.5,6c0.3,0.9,0.9,1.7,1.7,2.4
		c0.9,0.8,1.9,1.3,3.2,1.6c3.5,0.8,6.9-0.2,10.3-3.1C665.8,531.1,666.2,530.7,666.6,530.3 M657.3,509.4l0.2,0.1v0.1
		c3.6-1.9,5.9-3.4,7-4.6c0.5-0.5,0.8-1,1-1.6c0.2-0.6,0.3-1.2,0.2-1.9c-0.1-2.3-1.1-3.9-3-4.8c-0.9-0.4-1.8-0.6-2.7-0.6
		c-1,0-1.9,0.2-2.7,0.5c-1.8,0.8-2.8,2.3-3,4.6c-0.1,1.2,0.1,2.5,0.5,3.9C655.4,506.7,656.2,508.1,657.3,509.4"/>
	<path class="st0" d="M759.5,493.6l-5.6,6.7c-4.2-3.5-8.6-5.1-13.4-4.7c-1.7,0.2-3.2,0.5-4.5,1.2c-1.2,0.6-2.3,1.3-3.1,2.3
		c-1.2,1.5-1.7,3.2-1.6,5.3c0.2,0.8,0.5,1.6,1.1,2.3c0.6,0.7,1.2,1.3,1.9,1.8c0.6,0.5,1.6,0.9,2.8,1.4c1.2,0.5,2.3,0.9,3.1,1.1
		c0.8,0.2,2,0.6,3.5,1c2.5,0.7,4.5,1.3,5.8,1.7c1.3,0.4,3,1.2,4.9,2.2c2,1,3.4,2.1,4.3,3.2c0.9,1.1,1.7,2.7,2.3,4.5
		c0.6,1.9,0.8,4.1,0.6,6.6v0.1c-0.4,2.7-1.4,5.2-3.1,7.4c-2.1,2.5-4.9,4.4-8.4,5.5c-3.4,1-7,1.3-10.9,0.8
		c-6.7-0.8-13.1-3.7-19.2-8.5l5.4-6.8c4.8,3.8,9.7,6,14.8,6.6c2.7,0.4,5.1,0.2,7.2-0.5c1.9-0.6,3.3-1.5,4.2-2.6
		c0.7-0.8,1.1-1.8,1.2-2.9c0.1-1-0.1-2-0.6-2.8c-0.4-0.9-1-1.6-1.6-2.1c-0.6-0.5-1.5-1.1-2.8-1.6c-1.3-0.5-2.3-1-3.1-1.2
		c-0.8-0.3-2.1-0.7-3.7-1.1c-1.6-0.5-2.9-0.8-3.7-1.1c-0.8-0.3-2-0.7-3.5-1.2c-1.5-0.5-2.6-1-3.4-1.5c-0.8-0.5-1.7-1.1-2.8-1.9
		c-1.1-0.8-1.9-1.6-2.5-2.4c-0.6-0.9-1.2-1.9-1.7-3.1c-0.5-1.2-0.9-2.5-1.1-3.9v-0.3c-0.3-4.4,0.9-8.3,3.7-11.6
		c1.6-1.9,3.6-3.4,6.1-4.6c2.4-1.1,4.9-1.7,7.6-1.9c2.1-0.2,4.3,0,6.4,0.4c2.2,0.4,4.4,1.2,6.7,2.2
		C755.3,490.5,757.5,491.9,759.5,493.6"/>
	<path class="st0" d="M773.4,530.1c-2.5-4.4-3.8-9.1-3.8-14.3c0-5.2,1.3-9.9,3.8-14.3c2.5-4.4,6-7.8,10.4-10.4c4.4-2.6,9.2-3.8,14.4-3.8
		c2.9,0,5.7,0.4,8.5,1.3c2.7,0.9,5.3,2.1,7.5,3.6c2.3,1.6,4.3,3.4,6.1,5.6l-6.3,6.3c-1.8-2.5-4.1-4.4-6.9-5.9
		c-2.8-1.4-5.7-2.1-8.9-2.1c-5.4,0-10.1,1.9-13.9,5.8c-3.9,3.9-5.8,8.5-5.8,13.9c0,5.4,1.9,10.1,5.8,13.9c3.9,3.9,8.5,5.8,13.9,5.8
		c3.2,0,6.1-0.7,8.9-2.1c2.8-1.4,5.1-3.4,6.9-5.9l6.3,6.3c-2.6,3.3-5.9,5.8-9.7,7.7c-3.9,1.9-8,2.8-12.3,2.8c-5.2,0-10-1.3-14.4-3.8
		C779.4,538,775.9,534.5,773.4,530.1"/>
	<path class="st0" d="M862.6,543l-14.3-22.9h-11.7V543H828v-31.5h27.3h0.1c2,0,3.6-0.7,5-2.1c1.4-1.4,2.1-3.1,2.1-5.1c0-2-0.7-3.7-2.1-5
		c-1.4-1.4-3.1-2.1-5-2.1H828v-8.6h27.3c4.2,0,7.8,1.5,10.8,4.4c3,2.9,4.7,6.4,4.9,10.6v0.1c0.2,3.9-1,7.4-3.4,10.4
		c-2.4,3.1-5.5,5-9.4,5.8l14.4,23.1H862.6z"/>
	<rect class="st0" x="880.5" y="488.6" width="8.6" height="54.4"/>
	<path class="st0" d="M939.9,503.6c0.2,4.5-1.2,8.3-4.3,11.6c-3.1,3.3-6.9,4.9-11.4,4.9h-18.6V543h-8.6v-31.5h27.3h0.1c2,0,3.7-0.7,5.1-2.1
		c1.4-1.4,2.1-3.1,2.1-5.1c0-2-0.7-3.7-2.1-5c-1.4-1.4-3.1-2.1-5.1-2.1h-27.3v-8.6h27.3c4.2,0,7.8,1.5,10.8,4.4
		C938,495.9,939.6,499.4,939.9,503.6L939.9,503.6z"/>
	<path class="st0" d="M992,497.2h-44.3v-8.6H992V497.2z M974.1,543h-8.6v-37.1h8.6V543z"/>
	<path class="st0" d="M207.7,427.9c-4.1-4.1-9-6.1-14.8-6.1h0h-60.5v34.5l-7.6,6.4l70.7,59.9v26l-64.7,53.8h62.1
		c5.8,0,10.7-2,14.8-6.1c4.1-4.1,6.1-9,6.1-14.8V442.8C213.9,437,211.8,432,207.7,427.9"/>
	<path class="st0" d="M50,474.8l62.5-53H54.1c-5.8,0-10.7,2-14.8,6.1c-4.1,4.1-6.1,9-6.1,14.8v138.8c0,5.8,2,10.7,6.1,14.8
		c4.1,4.1,9,6.2,14.8,6.1h59.1v-36.3l7.8-6.5l-70.9-59V474.8z"/>
	<polygon class="st0" points="131.7,567.1 126.9,571.1 126.9,588.5 181.7,543 181.7,529.3 126.9,482.8 126.9,500.4 169,536.1 
		133.3,565.8 	"/>
	<polygon class="st0" points="66.3,497 121.2,542.6 121.2,525.1 79.1,490.1 114.8,459.8 116.7,458.3 121.2,454.4 121.2,436.8 
		66.3,483.3 	"/>
</g>
<rect class="st1" width="1024" height="1024"/>
</svg>
